<?xml version="1.0" encoding="utf-8"?>
<!-- Generator: Adobe Illustrator 22.1.0, SVG Export Plug-In . SVG Version: 6.00 Build 0)  -->
<svg version="1.1" id="Capa_1" xmlns="http://www.w3.org/2000/svg" xmlns:xlink="http://www.w3.org/1999/xlink" x="0px" y="0px"
	 viewBox="0 0 22 22" style="enable-background:new 0 0 22 22;" xml:space="preserve">
<style type="text/css">
	.st0{fill:#FF8CB2;}
	.st1{fill:#FFFFFF;}
	.st2{fill:none;stroke:#000000;stroke-width:3;stroke-linecap:round;stroke-miterlimit:10;}
	.st3{fill:#8D8D8D;}
</style>
<path class="st0" d="M-554,386c13.3-2.9,30.1-3.1,39.8,7.9c3.9,4.4,7.5,9.9,8.8,15.7c0.6,2.6,0.8,5.4,0.8,8.1c0,1.5-0.1,3-0.1,4.4
	c-0.1,1.1-0.8,4-0.3,4.9c0,0-12-24-35-35c0,0,23,17,30,39c0,0-21,6-35-10S-554,386-554,386z"/>
<image style="overflow:visible;" width="1400" height="846" xlink:href="E3EA361E.jpg"  transform="matrix(1 0 0 1 -2070 -190)">
</image>
<path class="st1" d="M-532,449"/>
<g>
	<g>
		<rect x="-484" y="453" class="st0" width="2" height="2"/>
		<rect x="-480" y="453" class="st0" width="2" height="2"/>
		<rect x="-476" y="453" class="st0" width="2" height="2"/>
		<rect x="-472" y="453" class="st0" width="2" height="2"/>
		<rect x="-468" y="453" class="st0" width="2" height="2"/>
		<rect x="-464" y="453" class="st0" width="2" height="2"/>
		<rect x="-460" y="453" class="st0" width="2" height="2"/>
		<rect x="-456" y="453" class="st0" width="2" height="2"/>
		<rect x="-452" y="453" class="st0" width="2" height="2"/>
		<rect x="-448" y="453" class="st0" width="2" height="2"/>
	</g>
	<g>
		<rect x="-484" y="449" class="st0" width="2" height="2"/>
		<rect x="-480" y="449" class="st0" width="2" height="2"/>
		<rect x="-476" y="449" class="st0" width="2" height="2"/>
		<rect x="-472" y="449" class="st0" width="2" height="2"/>
		<rect x="-468" y="449" class="st0" width="2" height="2"/>
		<rect x="-464" y="449" class="st0" width="2" height="2"/>
		<rect x="-460" y="449" class="st0" width="2" height="2"/>
		<rect x="-456" y="449" class="st0" width="2" height="2"/>
		<rect x="-452" y="449" class="st0" width="2" height="2"/>
		<rect x="-448" y="449" class="st0" width="2" height="2"/>
	</g>
	<g>
		<rect x="-484" y="445" class="st0" width="2" height="2"/>
		<rect x="-480" y="445" class="st0" width="2" height="2"/>
		<rect x="-476" y="445" class="st0" width="2" height="2"/>
		<rect x="-472" y="445" class="st0" width="2" height="2"/>
		<rect x="-468" y="445" class="st0" width="2" height="2"/>
		<rect x="-464" y="445" class="st0" width="2" height="2"/>
		<rect x="-460" y="445" class="st0" width="2" height="2"/>
		<rect x="-456" y="445" class="st0" width="2" height="2"/>
		<rect x="-452" y="445" class="st0" width="2" height="2"/>
		<rect x="-448" y="445" class="st0" width="2" height="2"/>
	</g>
	<g>
		<rect x="-484" y="441" class="st0" width="2" height="2"/>
		<rect x="-480" y="441" class="st0" width="2" height="2"/>
		<rect x="-476" y="441" class="st0" width="2" height="2"/>
		<rect x="-472" y="441" class="st0" width="2" height="2"/>
		<rect x="-468" y="441" class="st0" width="2" height="2"/>
		<rect x="-464" y="441" class="st0" width="2" height="2"/>
		<rect x="-460" y="441" class="st0" width="2" height="2"/>
		<rect x="-456" y="441" class="st0" width="2" height="2"/>
		<rect x="-452" y="441" class="st0" width="2" height="2"/>
		<rect x="-448" y="441" class="st0" width="2" height="2"/>
	</g>
	<g>
		<rect x="-484" y="437" class="st0" width="2" height="2"/>
		<rect x="-480" y="437" class="st0" width="2" height="2"/>
		<rect x="-476" y="437" class="st0" width="2" height="2"/>
		<rect x="-472" y="437" class="st0" width="2" height="2"/>
		<rect x="-468" y="437" class="st0" width="2" height="2"/>
		<rect x="-464" y="437" class="st0" width="2" height="2"/>
		<rect x="-460" y="437" class="st0" width="2" height="2"/>
		<rect x="-456" y="437" class="st0" width="2" height="2"/>
		<rect x="-452" y="437" class="st0" width="2" height="2"/>
		<rect x="-448" y="437" class="st0" width="2" height="2"/>
	</g>
	<g>
		<rect x="-484" y="433" class="st0" width="2" height="2"/>
		<rect x="-480" y="433" class="st0" width="2" height="2"/>
		<rect x="-476" y="433" class="st0" width="2" height="2"/>
		<rect x="-472" y="433" class="st0" width="2" height="2"/>
		<rect x="-468" y="433" class="st0" width="2" height="2"/>
		<rect x="-464" y="433" class="st0" width="2" height="2"/>
		<rect x="-460" y="433" class="st0" width="2" height="2"/>
		<rect x="-456" y="433" class="st0" width="2" height="2"/>
		<rect x="-452" y="433" class="st0" width="2" height="2"/>
		<rect x="-448" y="433" class="st0" width="2" height="2"/>
	</g>
</g>
<g>
	<path class="st2" d="M-533.6,449c7.3-9.9,20.5-16.5,35.6-16.5c15.1,0,28.3,6.6,35.6,16.5"/>
	<line class="st2" x1="-526" y1="409" x2="-516" y2="448"/>
	<line class="st2" x1="-469" y1="409" x2="-479" y2="448"/>
	<line class="st2" x1="-497.5" y1="404.5" x2="-497.5" y2="443.5"/>
	<circle class="st2" cx="-527.8" cy="403.3" r="5.8"/>
	<circle class="st2" cx="-497.8" cy="398.3" r="5.8"/>
	<circle class="st2" cx="-467.8" cy="403.3" r="5.8"/>
</g>
<g>
	<g>
		<path class="st0" d="M-469,119c13.3-2.9,30.1-3.1,39.8,7.9c3.9,4.4,7.5,9.9,8.8,15.7c0.6,2.6,0.8,5.4,0.8,8.1c0,1.5-0.1,3-0.1,4.4
			c-0.1,1.1-0.8,4-0.3,4.9c0,0-12-24-35-35c0,0,23,17,30,39c0,0-21,6-35-10S-469,119-469,119z"/>
	</g>
	<g>
		<path class="st1" d="M-447,182"/>
	</g>
	<g>
		<g>
			<g>
				<rect x="-399" y="186" class="st0" width="2" height="2"/>
			</g>
			<g>
				<rect x="-395" y="186" class="st0" width="2" height="2"/>
			</g>
			<g>
				<rect x="-391" y="186" class="st0" width="2" height="2"/>
			</g>
			<g>
				<rect x="-387" y="186" class="st0" width="2" height="2"/>
			</g>
			<g>
				<rect x="-383" y="186" class="st0" width="2" height="2"/>
			</g>
			<g>
				<rect x="-379" y="186" class="st0" width="2" height="2"/>
			</g>
			<g>
				<rect x="-375" y="186" class="st0" width="2" height="2"/>
			</g>
			<g>
				<rect x="-371" y="186" class="st0" width="2" height="2"/>
			</g>
			<g>
				<rect x="-367" y="186" class="st0" width="2" height="2"/>
			</g>
			<g>
				<rect x="-363" y="186" class="st0" width="2" height="2"/>
			</g>
		</g>
		<g>
			<g>
				<rect x="-399" y="182" class="st0" width="2" height="2"/>
			</g>
			<g>
				<rect x="-395" y="182" class="st0" width="2" height="2"/>
			</g>
			<g>
				<rect x="-391" y="182" class="st0" width="2" height="2"/>
			</g>
			<g>
				<rect x="-387" y="182" class="st0" width="2" height="2"/>
			</g>
			<g>
				<rect x="-383" y="182" class="st0" width="2" height="2"/>
			</g>
			<g>
				<rect x="-379" y="182" class="st0" width="2" height="2"/>
			</g>
			<g>
				<rect x="-375" y="182" class="st0" width="2" height="2"/>
			</g>
			<g>
				<rect x="-371" y="182" class="st0" width="2" height="2"/>
			</g>
			<g>
				<rect x="-367" y="182" class="st0" width="2" height="2"/>
			</g>
			<g>
				<rect x="-363" y="182" class="st0" width="2" height="2"/>
			</g>
		</g>
		<g>
			<g>
				<rect x="-399" y="178" class="st0" width="2" height="2"/>
			</g>
			<g>
				<rect x="-395" y="178" class="st0" width="2" height="2"/>
			</g>
			<g>
				<rect x="-391" y="178" class="st0" width="2" height="2"/>
			</g>
			<g>
				<rect x="-387" y="178" class="st0" width="2" height="2"/>
			</g>
			<g>
				<rect x="-383" y="178" class="st0" width="2" height="2"/>
			</g>
			<g>
				<rect x="-379" y="178" class="st0" width="2" height="2"/>
			</g>
			<g>
				<rect x="-375" y="178" class="st0" width="2" height="2"/>
			</g>
			<g>
				<rect x="-371" y="178" class="st0" width="2" height="2"/>
			</g>
			<g>
				<rect x="-367" y="178" class="st0" width="2" height="2"/>
			</g>
			<g>
				<rect x="-363" y="178" class="st0" width="2" height="2"/>
			</g>
		</g>
		<g>
			<g>
				<rect x="-399" y="174" class="st0" width="2" height="2"/>
			</g>
			<g>
				<rect x="-395" y="174" class="st0" width="2" height="2"/>
			</g>
			<g>
				<rect x="-391" y="174" class="st0" width="2" height="2"/>
			</g>
			<g>
				<rect x="-387" y="174" class="st0" width="2" height="2"/>
			</g>
			<g>
				<rect x="-383" y="174" class="st0" width="2" height="2"/>
			</g>
			<g>
				<rect x="-379" y="174" class="st0" width="2" height="2"/>
			</g>
			<g>
				<rect x="-375" y="174" class="st0" width="2" height="2"/>
			</g>
			<g>
				<rect x="-371" y="174" class="st0" width="2" height="2"/>
			</g>
			<g>
				<rect x="-367" y="174" class="st0" width="2" height="2"/>
			</g>
			<g>
				<rect x="-363" y="174" class="st0" width="2" height="2"/>
			</g>
		</g>
		<g>
			<g>
				<rect x="-399" y="170" class="st0" width="2" height="2"/>
			</g>
			<g>
				<rect x="-395" y="170" class="st0" width="2" height="2"/>
			</g>
			<g>
				<rect x="-391" y="170" class="st0" width="2" height="2"/>
			</g>
			<g>
				<rect x="-387" y="170" class="st0" width="2" height="2"/>
			</g>
			<g>
				<rect x="-383" y="170" class="st0" width="2" height="2"/>
			</g>
			<g>
				<rect x="-379" y="170" class="st0" width="2" height="2"/>
			</g>
			<g>
				<rect x="-375" y="170" class="st0" width="2" height="2"/>
			</g>
			<g>
				<rect x="-371" y="170" class="st0" width="2" height="2"/>
			</g>
			<g>
				<rect x="-367" y="170" class="st0" width="2" height="2"/>
			</g>
			<g>
				<rect x="-363" y="170" class="st0" width="2" height="2"/>
			</g>
		</g>
		<g>
			<g>
				<rect x="-399" y="166" class="st0" width="2" height="2"/>
			</g>
			<g>
				<rect x="-395" y="166" class="st0" width="2" height="2"/>
			</g>
			<g>
				<rect x="-391" y="166" class="st0" width="2" height="2"/>
			</g>
			<g>
				<rect x="-387" y="166" class="st0" width="2" height="2"/>
			</g>
			<g>
				<rect x="-383" y="166" class="st0" width="2" height="2"/>
			</g>
			<g>
				<rect x="-379" y="166" class="st0" width="2" height="2"/>
			</g>
			<g>
				<rect x="-375" y="166" class="st0" width="2" height="2"/>
			</g>
			<g>
				<rect x="-371" y="166" class="st0" width="2" height="2"/>
			</g>
			<g>
				<rect x="-367" y="166" class="st0" width="2" height="2"/>
			</g>
			<g>
				<rect x="-363" y="166" class="st0" width="2" height="2"/>
			</g>
		</g>
	</g>
	<g>
		<g>
			<path d="M-377.4,183.5c-0.5,0-0.9-0.2-1.2-0.6c-7.2-9.8-20.4-15.9-34.4-15.9c-14,0-27.2,6.1-34.4,15.9c-0.5,0.7-1.4,0.8-2.1,0.3
				c-0.7-0.5-0.8-1.4-0.3-2.1c7.9-10.7,21.6-17.1,36.8-17.1c15.2,0,28.9,6.4,36.8,17.1c0.5,0.7,0.3,1.6-0.3,2.1
				C-376.8,183.4-377.1,183.5-377.4,183.5z"/>
		</g>
		<g>
			<path d="M-431,182.5c-0.7,0-1.3-0.5-1.5-1.1l-10-39c-0.2-0.8,0.3-1.6,1.1-1.8c0.8-0.2,1.6,0.3,1.8,1.1l10,39
				c0.2,0.8-0.3,1.6-1.1,1.8C-430.8,182.5-430.9,182.5-431,182.5z"/>
		</g>
		<g>
			<path d="M-394,182.5c-0.1,0-0.2,0-0.4,0c-0.8-0.2-1.3-1-1.1-1.8l10-39c0.2-0.8,1-1.3,1.8-1.1c0.8,0.2,1.3,1,1.1,1.8l-10,39
				C-392.7,182-393.3,182.5-394,182.5z"/>
		</g>
		<g>
			<path d="M-412.5,178c-0.8,0-1.5-0.7-1.5-1.5v-39c0-0.8,0.7-1.5,1.5-1.5s1.5,0.7,1.5,1.5v39C-411,177.3-411.7,178-412.5,178z"/>
		</g>
		<g>
			<path d="M-442.8,143.5c-4,0-7.3-3.3-7.3-7.3s3.3-7.3,7.3-7.3s7.3,3.3,7.3,7.3S-438.8,143.5-442.8,143.5z M-442.8,132
				c-2.3,0-4.3,1.9-4.3,4.3s1.9,4.3,4.3,4.3s4.3-1.9,4.3-4.3S-440.4,132-442.8,132z"/>
		</g>
		<g>
			<path d="M-412.8,138.5c-4,0-7.3-3.3-7.3-7.3s3.3-7.3,7.3-7.3s7.3,3.3,7.3,7.3S-408.8,138.5-412.8,138.5z M-412.8,127
				c-2.3,0-4.3,1.9-4.3,4.3s1.9,4.3,4.3,4.3s4.3-1.9,4.3-4.3S-410.4,127-412.8,127z"/>
		</g>
		<g>
			<path d="M-382.8,143.5c-4,0-7.3-3.3-7.3-7.3s3.3-7.3,7.3-7.3s7.3,3.3,7.3,7.3S-378.8,143.5-382.8,143.5z M-382.8,132
				c-2.3,0-4.3,1.9-4.3,4.3s1.9,4.3,4.3,4.3s4.3-1.9,4.3-4.3S-380.4,132-382.8,132z"/>
		</g>
	</g>
</g>
<g>
	<path class="st3" d="M12,6H2C1.4,6,1,5.6,1,5v0c0-0.6,0.4-1,1-1h10c0.6,0,1,0.4,1,1v0C13,5.6,12.6,6,12,6z"/>
	<path class="st3" d="M20,18H10c-0.6,0-1-0.4-1-1v0c0-0.6,0.4-1,1-1h10c0.6,0,1,0.4,1,1v0C21,17.6,20.6,18,20,18z"/>
	<path class="st3" d="M20,12H2c-0.6,0-1-0.4-1-1v0c0-0.6,0.4-1,1-1h18c0.6,0,1,0.4,1,1v0C21,11.6,20.6,12,20,12z"/>
</g>
</svg>
