<?xml version="1.0" encoding="utf-8"?>
<!-- Generator: Adobe Illustrator 22.1.0, SVG Export Plug-In . SVG Version: 6.00 Build 0)  -->
<svg version="1.1" id="Capa_1" xmlns="http://www.w3.org/2000/svg" xmlns:xlink="http://www.w3.org/1999/xlink" x="0px" y="0px"
	 viewBox="0 0 22 22" style="enable-background:new 0 0 22 22;" xml:space="preserve">
<style type="text/css">
	.st0{fill:#FF8CB2;}
	.st1{fill:#FFFFFF;}
	.st2{fill:none;stroke:#000000;stroke-width:3;stroke-linecap:round;stroke-miterlimit:10;}
	.st3{fill:#8D8D8D;}
</style>
<path class="st0" d="M-554,362c13.3-2.9,30.1-3.1,39.8,7.9c3.9,4.4,7.5,9.9,8.8,15.7c0.6,2.6,0.8,5.4,0.8,8.1c0,1.5-0.1,3-0.1,4.4
	c-0.1,1.1-0.8,4-0.3,4.9c0,0-12-24-35-35c0,0,23,17,30,39c0,0-21,6-35-10S-554,362-554,362z"/>
<image style="overflow:visible;" width="1400" height="846" xlink:href="A45C34A8.jpg"  transform="matrix(1 0 0 1 -2070 -214)">
</image>
<path class="st1" d="M-532,425"/>
<g>
	<g>
		<rect x="-484" y="429" class="st0" width="2" height="2"/>
		<rect x="-480" y="429" class="st0" width="2" height="2"/>
		<rect x="-476" y="429" class="st0" width="2" height="2"/>
		<rect x="-472" y="429" class="st0" width="2" height="2"/>
		<rect x="-468" y="429" class="st0" width="2" height="2"/>
		<rect x="-464" y="429" class="st0" width="2" height="2"/>
		<rect x="-460" y="429" class="st0" width="2" height="2"/>
		<rect x="-456" y="429" class="st0" width="2" height="2"/>
		<rect x="-452" y="429" class="st0" width="2" height="2"/>
		<rect x="-448" y="429" class="st0" width="2" height="2"/>
	</g>
	<g>
		<rect x="-484" y="425" class="st0" width="2" height="2"/>
		<rect x="-480" y="425" class="st0" width="2" height="2"/>
		<rect x="-476" y="425" class="st0" width="2" height="2"/>
		<rect x="-472" y="425" class="st0" width="2" height="2"/>
		<rect x="-468" y="425" class="st0" width="2" height="2"/>
		<rect x="-464" y="425" class="st0" width="2" height="2"/>
		<rect x="-460" y="425" class="st0" width="2" height="2"/>
		<rect x="-456" y="425" class="st0" width="2" height="2"/>
		<rect x="-452" y="425" class="st0" width="2" height="2"/>
		<rect x="-448" y="425" class="st0" width="2" height="2"/>
	</g>
	<g>
		<rect x="-484" y="421" class="st0" width="2" height="2"/>
		<rect x="-480" y="421" class="st0" width="2" height="2"/>
		<rect x="-476" y="421" class="st0" width="2" height="2"/>
		<rect x="-472" y="421" class="st0" width="2" height="2"/>
		<rect x="-468" y="421" class="st0" width="2" height="2"/>
		<rect x="-464" y="421" class="st0" width="2" height="2"/>
		<rect x="-460" y="421" class="st0" width="2" height="2"/>
		<rect x="-456" y="421" class="st0" width="2" height="2"/>
		<rect x="-452" y="421" class="st0" width="2" height="2"/>
		<rect x="-448" y="421" class="st0" width="2" height="2"/>
	</g>
	<g>
		<rect x="-484" y="417" class="st0" width="2" height="2"/>
		<rect x="-480" y="417" class="st0" width="2" height="2"/>
		<rect x="-476" y="417" class="st0" width="2" height="2"/>
		<rect x="-472" y="417" class="st0" width="2" height="2"/>
		<rect x="-468" y="417" class="st0" width="2" height="2"/>
		<rect x="-464" y="417" class="st0" width="2" height="2"/>
		<rect x="-460" y="417" class="st0" width="2" height="2"/>
		<rect x="-456" y="417" class="st0" width="2" height="2"/>
		<rect x="-452" y="417" class="st0" width="2" height="2"/>
		<rect x="-448" y="417" class="st0" width="2" height="2"/>
	</g>
	<g>
		<rect x="-484" y="413" class="st0" width="2" height="2"/>
		<rect x="-480" y="413" class="st0" width="2" height="2"/>
		<rect x="-476" y="413" class="st0" width="2" height="2"/>
		<rect x="-472" y="413" class="st0" width="2" height="2"/>
		<rect x="-468" y="413" class="st0" width="2" height="2"/>
		<rect x="-464" y="413" class="st0" width="2" height="2"/>
		<rect x="-460" y="413" class="st0" width="2" height="2"/>
		<rect x="-456" y="413" class="st0" width="2" height="2"/>
		<rect x="-452" y="413" class="st0" width="2" height="2"/>
		<rect x="-448" y="413" class="st0" width="2" height="2"/>
	</g>
	<g>
		<rect x="-484" y="409" class="st0" width="2" height="2"/>
		<rect x="-480" y="409" class="st0" width="2" height="2"/>
		<rect x="-476" y="409" class="st0" width="2" height="2"/>
		<rect x="-472" y="409" class="st0" width="2" height="2"/>
		<rect x="-468" y="409" class="st0" width="2" height="2"/>
		<rect x="-464" y="409" class="st0" width="2" height="2"/>
		<rect x="-460" y="409" class="st0" width="2" height="2"/>
		<rect x="-456" y="409" class="st0" width="2" height="2"/>
		<rect x="-452" y="409" class="st0" width="2" height="2"/>
		<rect x="-448" y="409" class="st0" width="2" height="2"/>
	</g>
</g>
<g>
	<path class="st2" d="M-533.6,425c7.3-9.9,20.5-16.5,35.6-16.5c15.1,0,28.3,6.6,35.6,16.5"/>
	<line class="st2" x1="-526" y1="385" x2="-516" y2="424"/>
	<line class="st2" x1="-469" y1="385" x2="-479" y2="424"/>
	<line class="st2" x1="-497.5" y1="380.5" x2="-497.5" y2="419.5"/>
	<circle class="st2" cx="-527.8" cy="379.3" r="5.8"/>
	<circle class="st2" cx="-497.8" cy="374.3" r="5.8"/>
	<circle class="st2" cx="-467.8" cy="379.3" r="5.8"/>
</g>
<g>
	<g>
		<path class="st0" d="M-469,95c13.3-2.9,30.1-3.1,39.8,7.9c3.9,4.4,7.5,9.9,8.8,15.7c0.6,2.6,0.8,5.4,0.8,8.1c0,1.5-0.1,3-0.1,4.4
			c-0.1,1.1-0.8,4-0.3,4.9c0,0-12-24-35-35c0,0,23,17,30,39c0,0-21,6-35-10S-469,95-469,95z"/>
	</g>
	<g>
		<path class="st1" d="M-447,158"/>
	</g>
	<g>
		<g>
			<g>
				<rect x="-399" y="162" class="st0" width="2" height="2"/>
			</g>
			<g>
				<rect x="-395" y="162" class="st0" width="2" height="2"/>
			</g>
			<g>
				<rect x="-391" y="162" class="st0" width="2" height="2"/>
			</g>
			<g>
				<rect x="-387" y="162" class="st0" width="2" height="2"/>
			</g>
			<g>
				<rect x="-383" y="162" class="st0" width="2" height="2"/>
			</g>
			<g>
				<rect x="-379" y="162" class="st0" width="2" height="2"/>
			</g>
			<g>
				<rect x="-375" y="162" class="st0" width="2" height="2"/>
			</g>
			<g>
				<rect x="-371" y="162" class="st0" width="2" height="2"/>
			</g>
			<g>
				<rect x="-367" y="162" class="st0" width="2" height="2"/>
			</g>
			<g>
				<rect x="-363" y="162" class="st0" width="2" height="2"/>
			</g>
		</g>
		<g>
			<g>
				<rect x="-399" y="158" class="st0" width="2" height="2"/>
			</g>
			<g>
				<rect x="-395" y="158" class="st0" width="2" height="2"/>
			</g>
			<g>
				<rect x="-391" y="158" class="st0" width="2" height="2"/>
			</g>
			<g>
				<rect x="-387" y="158" class="st0" width="2" height="2"/>
			</g>
			<g>
				<rect x="-383" y="158" class="st0" width="2" height="2"/>
			</g>
			<g>
				<rect x="-379" y="158" class="st0" width="2" height="2"/>
			</g>
			<g>
				<rect x="-375" y="158" class="st0" width="2" height="2"/>
			</g>
			<g>
				<rect x="-371" y="158" class="st0" width="2" height="2"/>
			</g>
			<g>
				<rect x="-367" y="158" class="st0" width="2" height="2"/>
			</g>
			<g>
				<rect x="-363" y="158" class="st0" width="2" height="2"/>
			</g>
		</g>
		<g>
			<g>
				<rect x="-399" y="154" class="st0" width="2" height="2"/>
			</g>
			<g>
				<rect x="-395" y="154" class="st0" width="2" height="2"/>
			</g>
			<g>
				<rect x="-391" y="154" class="st0" width="2" height="2"/>
			</g>
			<g>
				<rect x="-387" y="154" class="st0" width="2" height="2"/>
			</g>
			<g>
				<rect x="-383" y="154" class="st0" width="2" height="2"/>
			</g>
			<g>
				<rect x="-379" y="154" class="st0" width="2" height="2"/>
			</g>
			<g>
				<rect x="-375" y="154" class="st0" width="2" height="2"/>
			</g>
			<g>
				<rect x="-371" y="154" class="st0" width="2" height="2"/>
			</g>
			<g>
				<rect x="-367" y="154" class="st0" width="2" height="2"/>
			</g>
			<g>
				<rect x="-363" y="154" class="st0" width="2" height="2"/>
			</g>
		</g>
		<g>
			<g>
				<rect x="-399" y="150" class="st0" width="2" height="2"/>
			</g>
			<g>
				<rect x="-395" y="150" class="st0" width="2" height="2"/>
			</g>
			<g>
				<rect x="-391" y="150" class="st0" width="2" height="2"/>
			</g>
			<g>
				<rect x="-387" y="150" class="st0" width="2" height="2"/>
			</g>
			<g>
				<rect x="-383" y="150" class="st0" width="2" height="2"/>
			</g>
			<g>
				<rect x="-379" y="150" class="st0" width="2" height="2"/>
			</g>
			<g>
				<rect x="-375" y="150" class="st0" width="2" height="2"/>
			</g>
			<g>
				<rect x="-371" y="150" class="st0" width="2" height="2"/>
			</g>
			<g>
				<rect x="-367" y="150" class="st0" width="2" height="2"/>
			</g>
			<g>
				<rect x="-363" y="150" class="st0" width="2" height="2"/>
			</g>
		</g>
		<g>
			<g>
				<rect x="-399" y="146" class="st0" width="2" height="2"/>
			</g>
			<g>
				<rect x="-395" y="146" class="st0" width="2" height="2"/>
			</g>
			<g>
				<rect x="-391" y="146" class="st0" width="2" height="2"/>
			</g>
			<g>
				<rect x="-387" y="146" class="st0" width="2" height="2"/>
			</g>
			<g>
				<rect x="-383" y="146" class="st0" width="2" height="2"/>
			</g>
			<g>
				<rect x="-379" y="146" class="st0" width="2" height="2"/>
			</g>
			<g>
				<rect x="-375" y="146" class="st0" width="2" height="2"/>
			</g>
			<g>
				<rect x="-371" y="146" class="st0" width="2" height="2"/>
			</g>
			<g>
				<rect x="-367" y="146" class="st0" width="2" height="2"/>
			</g>
			<g>
				<rect x="-363" y="146" class="st0" width="2" height="2"/>
			</g>
		</g>
		<g>
			<g>
				<rect x="-399" y="142" class="st0" width="2" height="2"/>
			</g>
			<g>
				<rect x="-395" y="142" class="st0" width="2" height="2"/>
			</g>
			<g>
				<rect x="-391" y="142" class="st0" width="2" height="2"/>
			</g>
			<g>
				<rect x="-387" y="142" class="st0" width="2" height="2"/>
			</g>
			<g>
				<rect x="-383" y="142" class="st0" width="2" height="2"/>
			</g>
			<g>
				<rect x="-379" y="142" class="st0" width="2" height="2"/>
			</g>
			<g>
				<rect x="-375" y="142" class="st0" width="2" height="2"/>
			</g>
			<g>
				<rect x="-371" y="142" class="st0" width="2" height="2"/>
			</g>
			<g>
				<rect x="-367" y="142" class="st0" width="2" height="2"/>
			</g>
			<g>
				<rect x="-363" y="142" class="st0" width="2" height="2"/>
			</g>
		</g>
	</g>
	<g>
		<g>
			<path d="M-377.4,159.5c-0.5,0-0.9-0.2-1.2-0.6c-7.2-9.8-20.4-15.9-34.4-15.9c-14,0-27.2,6.1-34.4,15.9c-0.5,0.7-1.4,0.8-2.1,0.3
				c-0.7-0.5-0.8-1.4-0.3-2.1c7.9-10.7,21.6-17.1,36.8-17.1c15.2,0,28.9,6.4,36.8,17.1c0.5,0.7,0.3,1.6-0.3,2.1
				C-376.8,159.4-377.1,159.5-377.4,159.5z"/>
		</g>
		<g>
			<path d="M-431,158.5c-0.7,0-1.3-0.5-1.5-1.1l-10-39c-0.2-0.8,0.3-1.6,1.1-1.8c0.8-0.2,1.6,0.3,1.8,1.1l10,39
				c0.2,0.8-0.3,1.6-1.1,1.8C-430.8,158.5-430.9,158.5-431,158.5z"/>
		</g>
		<g>
			<path d="M-394,158.5c-0.1,0-0.2,0-0.4,0c-0.8-0.2-1.3-1-1.1-1.8l10-39c0.2-0.8,1-1.3,1.8-1.1c0.8,0.2,1.3,1,1.1,1.8l-10,39
				C-392.7,158-393.3,158.5-394,158.5z"/>
		</g>
		<g>
			<path d="M-412.5,154c-0.8,0-1.5-0.7-1.5-1.5v-39c0-0.8,0.7-1.5,1.5-1.5s1.5,0.7,1.5,1.5v39C-411,153.3-411.7,154-412.5,154z"/>
		</g>
		<g>
			<path d="M-442.8,119.5c-4,0-7.3-3.3-7.3-7.3s3.3-7.3,7.3-7.3s7.3,3.3,7.3,7.3S-438.8,119.5-442.8,119.5z M-442.8,108
				c-2.3,0-4.3,1.9-4.3,4.3s1.9,4.3,4.3,4.3s4.3-1.9,4.3-4.3S-440.4,108-442.8,108z"/>
		</g>
		<g>
			<path d="M-412.8,114.5c-4,0-7.3-3.3-7.3-7.3s3.3-7.3,7.3-7.3s7.3,3.3,7.3,7.3S-408.8,114.5-412.8,114.5z M-412.8,103
				c-2.3,0-4.3,1.9-4.3,4.3s1.9,4.3,4.3,4.3s4.3-1.9,4.3-4.3S-410.4,103-412.8,103z"/>
		</g>
		<g>
			<path d="M-382.8,119.5c-4,0-7.3-3.3-7.3-7.3s3.3-7.3,7.3-7.3s7.3,3.3,7.3,7.3S-378.8,119.5-382.8,119.5z M-382.8,108
				c-2.3,0-4.3,1.9-4.3,4.3s1.9,4.3,4.3,4.3s4.3-1.9,4.3-4.3S-380.4,108-382.8,108z"/>
		</g>
	</g>
</g>
<path class="st3" d="M18.1,5.3L5.3,18.1c-0.4,0.4-1,0.4-1.4,0l0,0c-0.4-0.4-0.4-1,0-1.4L16.7,3.9c0.4-0.4,1-0.4,1.4,0l0,0
	C18.5,4.3,18.5,5,18.1,5.3z"/>
<path class="st3" d="M5.3,3.9l12.7,12.7c0.4,0.4,0.4,1,0,1.4l0,0c-0.4,0.4-1,0.4-1.4,0L3.9,5.3c-0.4-0.4-0.4-1,0-1.4l0,0
	C4.3,3.5,5,3.5,5.3,3.9z"/>
<g>
	<path class="st3" d="M12-18H2c-0.6,0-1-0.4-1-1v0c0-0.6,0.4-1,1-1h10c0.6,0,1,0.4,1,1v0C13-18.4,12.6-18,12-18z"/>
	<path class="st3" d="M20-6H10C9.4-6,9-6.4,9-7v0c0-0.6,0.4-1,1-1h10c0.6,0,1,0.4,1,1v0C21-6.4,20.6-6,20-6z"/>
	<path class="st3" d="M20-12H2c-0.6,0-1-0.4-1-1v0c0-0.6,0.4-1,1-1h18c0.6,0,1,0.4,1,1v0C21-12.4,20.6-12,20-12z"/>
</g>
</svg>
