<?xml version="1.0" encoding="utf-8"?>
<!-- Generator: Adobe Illustrator 22.1.0, SVG Export Plug-In . SVG Version: 6.00 Build 0)  -->
<svg version="1.1" id="Capa_1" xmlns="http://www.w3.org/2000/svg" xmlns:xlink="http://www.w3.org/1999/xlink" x="0px" y="0px"
	 viewBox="0 0 112 74" style="enable-background:new 0 0 112 74;" xml:space="preserve">
<style type="text/css">
	.st0{fill:#FF8CB2;}
	.st1{fill:#FFFFFF;}
	.st2{fill:none;stroke:#000000;stroke-width:3;stroke-linecap:round;stroke-miterlimit:10;}
	.st3{fill:#8D8D8D;}
</style>
<path class="st0" d="M-388,411c13.3-2.9,30.1-3.1,39.8,7.9c3.9,4.4,7.5,9.9,8.8,15.7c0.6,2.6,0.8,5.4,0.8,8.1c0,1.5-0.1,3-0.1,4.4
	c-0.1,1.1-0.8,4-0.3,4.9c0,0-12-24-35-35c0,0,23,17,30,39c0,0-21,6-35-10S-388,411-388,411z"/>
<image style="overflow:visible;" width="1400" height="846" xlink:href="3381B6C.jpg"  transform="matrix(1 0 0 1 -1904 -165)">
</image>
<path class="st1" d="M-366,474"/>
<g>
	<g>
		<rect x="-318" y="478" class="st0" width="2" height="2"/>
		<rect x="-314" y="478" class="st0" width="2" height="2"/>
		<rect x="-310" y="478" class="st0" width="2" height="2"/>
		<rect x="-306" y="478" class="st0" width="2" height="2"/>
		<rect x="-302" y="478" class="st0" width="2" height="2"/>
		<rect x="-298" y="478" class="st0" width="2" height="2"/>
		<rect x="-294" y="478" class="st0" width="2" height="2"/>
		<rect x="-290" y="478" class="st0" width="2" height="2"/>
		<rect x="-286" y="478" class="st0" width="2" height="2"/>
		<rect x="-282" y="478" class="st0" width="2" height="2"/>
	</g>
	<g>
		<rect x="-318" y="474" class="st0" width="2" height="2"/>
		<rect x="-314" y="474" class="st0" width="2" height="2"/>
		<rect x="-310" y="474" class="st0" width="2" height="2"/>
		<rect x="-306" y="474" class="st0" width="2" height="2"/>
		<rect x="-302" y="474" class="st0" width="2" height="2"/>
		<rect x="-298" y="474" class="st0" width="2" height="2"/>
		<rect x="-294" y="474" class="st0" width="2" height="2"/>
		<rect x="-290" y="474" class="st0" width="2" height="2"/>
		<rect x="-286" y="474" class="st0" width="2" height="2"/>
		<rect x="-282" y="474" class="st0" width="2" height="2"/>
	</g>
	<g>
		<rect x="-318" y="470" class="st0" width="2" height="2"/>
		<rect x="-314" y="470" class="st0" width="2" height="2"/>
		<rect x="-310" y="470" class="st0" width="2" height="2"/>
		<rect x="-306" y="470" class="st0" width="2" height="2"/>
		<rect x="-302" y="470" class="st0" width="2" height="2"/>
		<rect x="-298" y="470" class="st0" width="2" height="2"/>
		<rect x="-294" y="470" class="st0" width="2" height="2"/>
		<rect x="-290" y="470" class="st0" width="2" height="2"/>
		<rect x="-286" y="470" class="st0" width="2" height="2"/>
		<rect x="-282" y="470" class="st0" width="2" height="2"/>
	</g>
	<g>
		<rect x="-318" y="466" class="st0" width="2" height="2"/>
		<rect x="-314" y="466" class="st0" width="2" height="2"/>
		<rect x="-310" y="466" class="st0" width="2" height="2"/>
		<rect x="-306" y="466" class="st0" width="2" height="2"/>
		<rect x="-302" y="466" class="st0" width="2" height="2"/>
		<rect x="-298" y="466" class="st0" width="2" height="2"/>
		<rect x="-294" y="466" class="st0" width="2" height="2"/>
		<rect x="-290" y="466" class="st0" width="2" height="2"/>
		<rect x="-286" y="466" class="st0" width="2" height="2"/>
		<rect x="-282" y="466" class="st0" width="2" height="2"/>
	</g>
	<g>
		<rect x="-318" y="462" class="st0" width="2" height="2"/>
		<rect x="-314" y="462" class="st0" width="2" height="2"/>
		<rect x="-310" y="462" class="st0" width="2" height="2"/>
		<rect x="-306" y="462" class="st0" width="2" height="2"/>
		<rect x="-302" y="462" class="st0" width="2" height="2"/>
		<rect x="-298" y="462" class="st0" width="2" height="2"/>
		<rect x="-294" y="462" class="st0" width="2" height="2"/>
		<rect x="-290" y="462" class="st0" width="2" height="2"/>
		<rect x="-286" y="462" class="st0" width="2" height="2"/>
		<rect x="-282" y="462" class="st0" width="2" height="2"/>
	</g>
	<g>
		<rect x="-318" y="458" class="st0" width="2" height="2"/>
		<rect x="-314" y="458" class="st0" width="2" height="2"/>
		<rect x="-310" y="458" class="st0" width="2" height="2"/>
		<rect x="-306" y="458" class="st0" width="2" height="2"/>
		<rect x="-302" y="458" class="st0" width="2" height="2"/>
		<rect x="-298" y="458" class="st0" width="2" height="2"/>
		<rect x="-294" y="458" class="st0" width="2" height="2"/>
		<rect x="-290" y="458" class="st0" width="2" height="2"/>
		<rect x="-286" y="458" class="st0" width="2" height="2"/>
		<rect x="-282" y="458" class="st0" width="2" height="2"/>
	</g>
</g>
<g>
	<path class="st2" d="M-367.6,474c7.3-9.9,20.5-16.5,35.6-16.5c15.1,0,28.3,6.6,35.6,16.5"/>
	<line class="st2" x1="-360" y1="434" x2="-350" y2="473"/>
	<line class="st2" x1="-303" y1="434" x2="-313" y2="473"/>
	<line class="st2" x1="-331.5" y1="429.5" x2="-331.5" y2="468.5"/>
	<circle class="st2" cx="-361.8" cy="428.3" r="5.8"/>
	<circle class="st2" cx="-331.8" cy="423.3" r="5.8"/>
	<circle class="st2" cx="-301.8" cy="428.3" r="5.8"/>
</g>
<g>
	<g>
		<path class="st0" d="M2,3c13.3-2.9,30.1-3.1,39.8,7.9c3.9,4.4,7.5,9.9,8.8,15.7c0.6,2.6,0.8,5.4,0.8,8.1c0,1.5-0.1,3-0.1,4.4
			c-0.1,1.1-0.8,4-0.3,4.9c0,0-12-24-35-35c0,0,23,17,30,39c0,0-21,6-35-10S2,3,2,3z"/>
	</g>
	<g>
		<path class="st1" d="M24,66"/>
	</g>
	<g>
		<g>
			<g>
				<rect x="72" y="70" class="st0" width="2" height="2"/>
			</g>
			<g>
				<rect x="76" y="70" class="st0" width="2" height="2"/>
			</g>
			<g>
				<rect x="80" y="70" class="st0" width="2" height="2"/>
			</g>
			<g>
				<rect x="84" y="70" class="st0" width="2" height="2"/>
			</g>
			<g>
				<rect x="88" y="70" class="st0" width="2" height="2"/>
			</g>
			<g>
				<rect x="92" y="70" class="st0" width="2" height="2"/>
			</g>
			<g>
				<rect x="96" y="70" class="st0" width="2" height="2"/>
			</g>
			<g>
				<rect x="100" y="70" class="st0" width="2" height="2"/>
			</g>
			<g>
				<rect x="104" y="70" class="st0" width="2" height="2"/>
			</g>
			<g>
				<rect x="108" y="70" class="st0" width="2" height="2"/>
			</g>
		</g>
		<g>
			<g>
				<rect x="72" y="66" class="st0" width="2" height="2"/>
			</g>
			<g>
				<rect x="76" y="66" class="st0" width="2" height="2"/>
			</g>
			<g>
				<rect x="80" y="66" class="st0" width="2" height="2"/>
			</g>
			<g>
				<rect x="84" y="66" class="st0" width="2" height="2"/>
			</g>
			<g>
				<rect x="88" y="66" class="st0" width="2" height="2"/>
			</g>
			<g>
				<rect x="92" y="66" class="st0" width="2" height="2"/>
			</g>
			<g>
				<rect x="96" y="66" class="st0" width="2" height="2"/>
			</g>
			<g>
				<rect x="100" y="66" class="st0" width="2" height="2"/>
			</g>
			<g>
				<rect x="104" y="66" class="st0" width="2" height="2"/>
			</g>
			<g>
				<rect x="108" y="66" class="st0" width="2" height="2"/>
			</g>
		</g>
		<g>
			<g>
				<rect x="72" y="62" class="st0" width="2" height="2"/>
			</g>
			<g>
				<rect x="76" y="62" class="st0" width="2" height="2"/>
			</g>
			<g>
				<rect x="80" y="62" class="st0" width="2" height="2"/>
			</g>
			<g>
				<rect x="84" y="62" class="st0" width="2" height="2"/>
			</g>
			<g>
				<rect x="88" y="62" class="st0" width="2" height="2"/>
			</g>
			<g>
				<rect x="92" y="62" class="st0" width="2" height="2"/>
			</g>
			<g>
				<rect x="96" y="62" class="st0" width="2" height="2"/>
			</g>
			<g>
				<rect x="100" y="62" class="st0" width="2" height="2"/>
			</g>
			<g>
				<rect x="104" y="62" class="st0" width="2" height="2"/>
			</g>
			<g>
				<rect x="108" y="62" class="st0" width="2" height="2"/>
			</g>
		</g>
		<g>
			<g>
				<rect x="72" y="58" class="st0" width="2" height="2"/>
			</g>
			<g>
				<rect x="76" y="58" class="st0" width="2" height="2"/>
			</g>
			<g>
				<rect x="80" y="58" class="st0" width="2" height="2"/>
			</g>
			<g>
				<rect x="84" y="58" class="st0" width="2" height="2"/>
			</g>
			<g>
				<rect x="88" y="58" class="st0" width="2" height="2"/>
			</g>
			<g>
				<rect x="92" y="58" class="st0" width="2" height="2"/>
			</g>
			<g>
				<rect x="96" y="58" class="st0" width="2" height="2"/>
			</g>
			<g>
				<rect x="100" y="58" class="st0" width="2" height="2"/>
			</g>
			<g>
				<rect x="104" y="58" class="st0" width="2" height="2"/>
			</g>
			<g>
				<rect x="108" y="58" class="st0" width="2" height="2"/>
			</g>
		</g>
		<g>
			<g>
				<rect x="72" y="54" class="st0" width="2" height="2"/>
			</g>
			<g>
				<rect x="76" y="54" class="st0" width="2" height="2"/>
			</g>
			<g>
				<rect x="80" y="54" class="st0" width="2" height="2"/>
			</g>
			<g>
				<rect x="84" y="54" class="st0" width="2" height="2"/>
			</g>
			<g>
				<rect x="88" y="54" class="st0" width="2" height="2"/>
			</g>
			<g>
				<rect x="92" y="54" class="st0" width="2" height="2"/>
			</g>
			<g>
				<rect x="96" y="54" class="st0" width="2" height="2"/>
			</g>
			<g>
				<rect x="100" y="54" class="st0" width="2" height="2"/>
			</g>
			<g>
				<rect x="104" y="54" class="st0" width="2" height="2"/>
			</g>
			<g>
				<rect x="108" y="54" class="st0" width="2" height="2"/>
			</g>
		</g>
		<g>
			<g>
				<rect x="72" y="50" class="st0" width="2" height="2"/>
			</g>
			<g>
				<rect x="76" y="50" class="st0" width="2" height="2"/>
			</g>
			<g>
				<rect x="80" y="50" class="st0" width="2" height="2"/>
			</g>
			<g>
				<rect x="84" y="50" class="st0" width="2" height="2"/>
			</g>
			<g>
				<rect x="88" y="50" class="st0" width="2" height="2"/>
			</g>
			<g>
				<rect x="92" y="50" class="st0" width="2" height="2"/>
			</g>
			<g>
				<rect x="96" y="50" class="st0" width="2" height="2"/>
			</g>
			<g>
				<rect x="100" y="50" class="st0" width="2" height="2"/>
			</g>
			<g>
				<rect x="104" y="50" class="st0" width="2" height="2"/>
			</g>
			<g>
				<rect x="108" y="50" class="st0" width="2" height="2"/>
			</g>
		</g>
	</g>
	<g>
		<g>
			<path d="M93.6,67.5c-0.5,0-0.9-0.2-1.2-0.6C85.2,57.1,72,51,58,51c-14,0-27.2,6.1-34.4,15.9c-0.5,0.7-1.4,0.8-2.1,0.3
				c-0.7-0.5-0.8-1.4-0.3-2.1C29.1,54.4,42.8,48,58,48c15.2,0,28.9,6.4,36.8,17.1c0.5,0.7,0.3,1.6-0.3,2.1
				C94.2,67.4,93.9,67.5,93.6,67.5z"/>
		</g>
		<g>
			<path d="M40,66.5c-0.7,0-1.3-0.5-1.5-1.1l-10-39c-0.2-0.8,0.3-1.6,1.1-1.8c0.8-0.2,1.6,0.3,1.8,1.1l10,39
				c0.2,0.8-0.3,1.6-1.1,1.8C40.2,66.5,40.1,66.5,40,66.5z"/>
		</g>
		<g>
			<path d="M77,66.5c-0.1,0-0.2,0-0.4,0c-0.8-0.2-1.3-1-1.1-1.8l10-39c0.2-0.8,1-1.3,1.8-1.1c0.8,0.2,1.3,1,1.1,1.8l-10,39
				C78.3,66,77.7,66.5,77,66.5z"/>
		</g>
		<g>
			<path d="M58.5,62c-0.8,0-1.5-0.7-1.5-1.5v-39c0-0.8,0.7-1.5,1.5-1.5s1.5,0.7,1.5,1.5v39C60,61.3,59.3,62,58.5,62z"/>
		</g>
		<g>
			<path d="M28.3,27.5c-4,0-7.3-3.3-7.3-7.3s3.3-7.3,7.3-7.3s7.3,3.3,7.3,7.3S32.2,27.5,28.3,27.5z M28.3,16c-2.3,0-4.3,1.9-4.3,4.3
				s1.9,4.3,4.3,4.3s4.3-1.9,4.3-4.3S30.6,16,28.3,16z"/>
		</g>
		<g>
			<path d="M58.3,22.5c-4,0-7.3-3.3-7.3-7.3S54.3,8,58.3,8s7.3,3.3,7.3,7.3S62.2,22.5,58.3,22.5z M58.3,11c-2.3,0-4.3,1.9-4.3,4.3
				s1.9,4.3,4.3,4.3s4.3-1.9,4.3-4.3S60.6,11,58.3,11z"/>
		</g>
		<g>
			<path d="M88.3,27.5c-4,0-7.3-3.3-7.3-7.3s3.3-7.3,7.3-7.3s7.3,3.3,7.3,7.3S92.2,27.5,88.3,27.5z M88.3,16c-2.3,0-4.3,1.9-4.3,4.3
				s1.9,4.3,4.3,4.3s4.3-1.9,4.3-4.3S90.6,16,88.3,16z"/>
		</g>
	</g>
</g>
<g>
	<path class="st3" d="M178,31h-10c-0.6,0-1-0.4-1-1v0c0-0.6,0.4-1,1-1h10c0.6,0,1,0.4,1,1v0C179,30.6,178.6,31,178,31z"/>
	<path class="st3" d="M186,43h-10c-0.6,0-1-0.4-1-1l0,0c0-0.6,0.4-1,1-1h10c0.6,0,1,0.4,1,1l0,0C187,42.6,186.6,43,186,43z"/>
	<path class="st3" d="M186,37h-18c-0.6,0-1-0.4-1-1v0c0-0.6,0.4-1,1-1h18c0.6,0,1,0.4,1,1v0C187,36.6,186.6,37,186,37z"/>
</g>
</svg>
